<?xml version="1.0" encoding="UTF-8" standalone="no"?>
<!-- Generator: Adobe Illustrator 19.2.0, SVG Export Plug-In . SVG Version: 6.00 Build 0)  -->

<svg
   xmlns:dc="http://purl.org/dc/elements/1.1/"
   xmlns:cc="http://creativecommons.org/ns#"
   xmlns:rdf="http://www.w3.org/1999/02/22-rdf-syntax-ns#"
   xmlns:svg="http://www.w3.org/2000/svg"
   xmlns="http://www.w3.org/2000/svg"
   xmlns:sodipodi="http://sodipodi.sourceforge.net/DTD/sodipodi-0.dtd"
   xmlns:inkscape="http://www.inkscape.org/namespaces/inkscape"
   version="1.1"
   x="0px"
   y="0px"
   viewBox="0 0 160 160"
   xml:space="preserve"
   id="svg2"
   inkscape:version="0.91 r13725"
   sodipodi:docname="cnbimobile-wheelchair-bci.svg"
   width="160"
   height="160"><metadata
     id="metadata34"><rdf:RDF><cc:Work
         rdf:about=""><dc:format>image/svg+xml</dc:format><dc:type
           rdf:resource="http://purl.org/dc/dcmitype/StillImage" /><dc:title /></cc:Work></rdf:RDF></metadata><defs
     id="defs32" /><sodipodi:namedview
     pagecolor="#ffffff"
     bordercolor="#666666"
     borderopacity="1"
     objecttolerance="10"
     gridtolerance="10"
     guidetolerance="10"
     inkscape:pageopacity="0"
     inkscape:pageshadow="2"
     inkscape:window-width="2495"
     inkscape:window-height="1416"
     id="namedview30"
     showgrid="false"
     inkscape:zoom="4.9166667"
     inkscape:cx="-22.372881"
     inkscape:cy="77.898305"
     inkscape:window-x="65"
     inkscape:window-y="24"
     inkscape:window-maximized="1"
     inkscape:current-layer="svg2" /><g
     id="g4162"
     transform="matrix(4.4444305,0,0,4.4444305,-31.025469,-31.09355)"><path
       id="path4"
       d="m 23,21 0,0 c -0.55,0 -1,-0.45 -1,-1 l 0,-1 c 0,-0.55 0.45,-1 1,-1 l 0,0 c 0.55,0 1,0.45 1,1 l 0,1 c 0,0.55 -0.45,1 -1,1 z"
       style="fill:#546e7a"
       inkscape:connector-curvature="0" /><path
       id="path6"
       d="m 32,30 c 0,-2.761 -4.029,-5 -9,-5 -4.971,0 -9,2.239 -9,5 l 18,0 z"
       style="fill:#546e7a"
       inkscape:connector-curvature="0" /><path
       id="path8"
       d="M 14.452,29.608 C 15.086,29.426 15.598,29.64 16,29 16.667,25.917 17.427,21.966 16,17 14.218,10.801 11.344,7 8,7 l 6.452,22.608 z"
       style="fill:#546e7a"
       inkscape:connector-curvature="0" /><path
       id="path10"
       d="m 36,39 -26,0 0,-1 c 0,-4.971 4.029,-9 9,-9 l 8,0 c 4.971,0 9,4.029 9,9 l 0,1 z"
       style="fill:#0fba3f;fill-opacity:1"
       inkscape:connector-curvature="0" /><path
       id="path12"
       d="m 42.274,34.962 -6.733,1.915 c -0.529,0.151 -1.085,-0.159 -1.235,-0.688 l 0,0 c -0.151,-0.529 0.159,-1.085 0.688,-1.235 l 6.733,-1.915 c 0.529,-0.151 1.085,0.159 1.235,0.688 l 0,0 c 0.15,0.528 -0.159,1.084 -0.688,1.235 z"
       style="fill:#37474f"
       inkscape:connector-curvature="0" /><rect
       id="rect14"
       height="2"
       width="23"
       style="fill:#37474f"
       y="37"
       x="12" /><circle
       id="circle16"
       r="4"
       cy="38"
       cx="13"
       style="fill:#cfd8dc;stroke:#546e7a;stroke-width:2;stroke-miterlimit:10" /><circle
       id="circle18"
       r="1"
       cy="38"
       cx="13"
       style="fill:#546e7a" /><circle
       id="circle20"
       r="4"
       cy="38"
       cx="33"
       style="fill:#cfd8dc;stroke:#546e7a;stroke-width:2;stroke-miterlimit:10" /><circle
       id="circle22"
       r="1"
       cy="38"
       cx="33"
       style="fill:#546e7a" /><path
       id="path24"
       d="M 15.778,31 13.567,31 7.038,8.305 C 6.887,7.776 7.197,7.22 7.726,7.07 L 7.839,7.038 C 8.368,6.887 8.924,7.197 9.074,7.726 L 15.778,31 Z"
       style="fill:#37474f"
       inkscape:connector-curvature="0" /><path
       id="path26"
       d="m 15,29 16,0 c 0.55,0 1,0.45 1,1 l 0,0 c 0,0.55 -0.45,1 -1,1 l -16,0 c -0.55,0 -1,-0.45 -1,-1 l 0,0 c 0,-0.55 0.45,-1 1,-1 z"
       style="fill:#37474f"
       inkscape:connector-curvature="0" /><path
       id="path28"
       d="m 12,20 14,0 c 0.55,0 1,0.45 1,1 l 0,0 c 0,0.55 -0.45,1 -1,1 l -14,0 c -0.55,0 -1,-0.45 -1,-1 l 0,0 c 0,-0.55 0.45,-1 1,-1 z"
       style="fill:#37474f"
       inkscape:connector-curvature="0" /></g><g
     transform="matrix(0.53822732,0,0,-0.53822732,24.846778,264.77405)"
     id="g4703"><path
       d="m 109.877,467.3027 c 3.853,3.469 9.546,4.041 14.503,1.461 0.03,-0.018 0.06,-0.035 0.089,-0.051 2.419,0.264 5.642,0.617 8.061,0.883 0.503,0.674 1.193,1.596 2.746,2.732 -0.429,1.705 -0.969,3.991 -1.477,5.674 -0.033,0.014 -0.065,0.026 -0.096,0.039 -7.12,3.246 -7.326,8.52 -0.434,11.063 9.448,3.486 20.994,-0.672 18.717,-6.742 -0.326,-0.871 -0.926,-1.547 -1.409,-2.092 -0.022,-0.022 -0.046,-0.043 -0.066,-0.065 0.575,-1.797 1.379,-4.185 1.859,-6.011 3.899,-1.539 8.528,-4.723 8.438,-11.143 0.727,-0.504 1.456,-1.014 2.183,-1.535 18.093,4.4 30.498,-13.592 22.607,-26.125 -1.08,-1.713 -7.118,-10.098 -20.06,-6.828 -0.642,-0.641 -1.286,-1.283 -1.933,-1.926 1.499,-8.51 -3.114,-13.314 -5.997,-15.42 0.091,-2.859 0.218,-6.674 0.303,-9.533 0.033,-0.031 0.066,-0.065 0.098,-0.096 8.856,-9.678 2.253,-22.139 -8.519,-21.974 -11.017,0.168 -18.871,13.289 -10.435,22.648 l 0.088,0.088 c -0.07,2.824 -0.167,6.592 -0.222,9.418 -1.549,1.199 -2.461,2.135 -3.62,3.699 -2.696,0.088 -6.294,0.199 -8.991,0.305 -0.031,-0.03 -0.06,-0.059 -0.091,-0.088 -8.768,-7.85 -19.982,-0.367 -19.526,9.986 0.427,9.697 10.995,15.51 19.564,7.686 0.026,-0.028 0.055,-0.055 0.082,-0.082 2.629,-0.012 6.132,-0.032 8.759,-0.03 2.454,3.272 7.017,6.985 14.838,6.092 0.628,0.623 1.253,1.246 1.878,1.869 -0.969,3.024 -1.133,5.692 -0.531,8.649 -0.692,0.558 -1.382,1.111 -2.071,1.658 -7.922,-1.277 -12.816,2.324 -15.027,4.586 -2.513,-0.143 -5.862,-0.338 -8.375,-0.473 -0.025,-0.025 -0.049,-0.049 -0.076,-0.074 -8.456,-7.609 -18.67,-1.031 -18.203,6.604 0.07,1.119 0.466,3.275 2.346,5.148 m 26.001,-1.055 c -3.924,-0.367 -9.154,-0.851 -13.078,-1.213 -4.107,4.192 -11.213,1.557 -11.442,-3.013 -0.261,-5.248 7.04,-7.785 11.006,-3.824 0.451,0.451 0.715,0.859 0.967,1.275 3.986,0.271 9.302,0.642 13.289,0.926 2.888,-4.325 8.373,-5.852 13.651,-3.799 2.316,-1.719 4.647,-3.52 6.987,-5.395 -1.669,-3.699 -1.422,-7.351 0.756,-11.17 -2.09,-2.08 -4.197,-4.175 -6.31,-6.279 -5.74,2.051 -11.321,-0.211 -13.572,-5.5 -4.245,0.035 -9.904,0.106 -14.15,0.178 -3.791,6.281 -11.533,4.267 -12.805,-1.725 -1.374,-6.465 5.168,-11.599 10.447,-8.199 0.936,0.604 1.712,1.426 2.307,2.449 4.293,-0.131 10.019,-0.279 14.314,-0.369 0.469,-1.029 1.895,-4.162 5.877,-5.892 0.112,-4.549 0.287,-10.614 0.439,-15.163 -6.603,-3.966 -3.54,-13.265 3.13,-14.67 6.919,-1.455 11.749,5.93 7.715,11.795 -0.998,1.452 -2.157,2.188 -2.779,2.584 -0.162,4.575 -0.365,10.676 -0.508,15.252 5.617,2.387 7.846,8.055 5.419,13.786 2.144,2.132 4.279,4.257 6.398,6.367 11.973,-5.475 21.842,4.646 17.903,14.437 -2.648,6.586 -11.115,11.041 -19.497,7.178 -2.391,1.828 -4.777,3.57 -7.157,5.226 1.677,5.325 -2.416,9.108 -7.327,10.094 -0.714,2.895 -1.803,6.725 -2.757,9.553 4.036,2.504 2.039,5.764 -2.428,6.674 -5.716,1.166 -12.041,-1.813 -9.138,-5.397 0.409,-0.506 1.661,-1.738 4.446,-2.269 0.849,-2.768 1.848,-6.496 2.501,-9.315 -1.622,-0.757 -3.612,-1.963 -4.604,-4.582"
       style="fill:#5bac26;fill-opacity:1;fill-rule:nonzero;stroke:none"
       id="path22"
       inkscape:connector-curvature="0" /><path
       d="m 162.1572,480.75 c 4.832,4.42 16.168,3.521 22.021,-3.789 l 0.064,-0.09 c 7.315,-3.363 7.315,-3.363 12.643,-3.623 0.502,1.522 1.195,3.543 1.645,5.08 -4.73,6.426 -2.269,9.092 2.45,8.34 9.493,-1.514 21.712,-14.814 16.55,-18.014 -1.048,-0.648 -2.492,-0.521 -3.036,-0.474 l -0.09,0.009 c -0.476,-1.57 -1.091,-3.671 -1.617,-5.228 1.881,-2.994 4.536,-8.762 1.174,-13.727 1.37,-3.976 5.387,-5.695 7.661,-8.902 0.572,-0.016 1.335,-0.035 1.906,-0.051 1.853,6.811 6.419,5.365 7.775,4.76 0.506,1.494 1.206,3.477 1.662,4.986 -2.505,7.362 -1.245,9.973 1.296,8.746 6.321,-3.05 14.295,-22.945 9.48,-23.654 -0.501,-0.072 -0.999,0.188 -1.481,0.44 l -0.052,0.031 c -1.273,-3.727 -1.273,-3.727 -0.919,-9.449 0.972,-2.256 2.32,-5.243 3.173,-7.545 6.204,-4.715 4.17,-25.028 0.244,-24.686 -1.989,0.174 -4.576,6.74 -4.806,14.637 l -0.003,0.125 c -0.983,2.117 -2.253,4.963 -3.345,7.027 -3.137,-0.168 -6.384,2.235 -9.392,6.946 -0.541,0.001 -1.262,0.003 -1.803,0.003 -3.444,-13.812 -18.689,-12.564 -26.036,-1.322 -4.414,6.754 -5.616,17.125 0.626,23.881 -0.357,1.012 -0.835,2.604 -1.79,3.102 -1.324,0.689 -8.056,4.537 -10.564,12.521 -2.567,1.293 -5.973,3.047 -8.577,4.268 -11.728,-2.323 -22.191,8.201 -17.609,14.763 0.2,0.285 0.506,0.641 0.75,0.889 m 38.75,-11.979 c -2.691,0.735 -4.785,0.541 -6.586,-0.605 -4.069,2.08 -9.824,4.23 -13.74,6.584 -1.152,0.693 -1.204,2.182 -2.192,2.994 -0.872,0.719 -2.391,1.684 -4.676,2.203 -4.607,1.047 -9.252,-1.172 -8.108,-5.256 1.132,-4.037 7.762,-7.285 12.741,-4.953 4.167,-1.926 9.665,-4.627 13.731,-6.758 0.449,-5.058 4.705,-9.855 10.351,-11.666 0.937,-2.621 2.222,-6.103 3.074,-8.75 -9.122,-5.332 -5.045,-22.326 5.895,-24.574 5.045,-1.037 10.368,1.963 10.783,9.703 1.825,-0.002 4.26,0.037 6.083,-0.047 2.739,-6.025 6.369,-7.834 8.538,-6.507 2.272,-4.45 5.38,-10.543 5.258,-11.955 -0.521,-6.016 2.423,-13.774 4.254,-8.768 1.439,3.932 0.625,13.318 -2.275,13.402 -4.982,12.838 -4.982,12.838 -5.277,15.1 -0.282,2.154 -0.884,3.789 -1.143,4.488 0.846,2.28 1.91,5.34 2.643,7.656 2.326,-2.13 2.603,-0.283 2.616,0.61 0.058,4.834 -5.563,14.15 -7.613,12.619 -0.06,-0.045 -1.457,-1.176 1.036,-7.002 -0.742,-2.383 -1.813,-5.533 -2.672,-7.875 -4.104,3.141 -6.603,0.17 -6.871,-4.219 -1.867,0.047 -4.355,0.143 -6.222,0.114 -2.084,4.142 -4.918,6.726 -8.661,7.894 -0.892,2.608 -2.037,6.098 -3.016,8.672 3.512,2.494 3.04,7.738 -1.118,12.467 0.849,2.488 1.91,5.83 2.63,8.359 4.497,-1.273 4.531,1.313 3.456,3.363 -2.72,5.184 -11.805,9.67 -12.96,6.401 -0.208,-0.588 -0.36,-2.293 2.695,-5.438 -0.73,-2.496 -1.797,-5.8 -2.654,-8.256"
       style="fill:#86bc55;fill-opacity:1;fill-rule:nonzero;stroke:none"
       id="path26-3"
       inkscape:connector-curvature="0" /><path
       d="m 215.2744,406.3184 c 0.422,0.414 0.701,0.664 1.148,1.027 0.836,-0.716 1.952,-1.672 2.789,-2.388 0.656,0.363 1.07,0.543 1.768,0.763 0.278,1.203 0.65,2.807 0.929,4.008 1.281,0.111 2.308,-0.014 3.547,-0.43 0.253,-1.242 0.59,-2.9 0.844,-4.142 0.589,-0.348 0.945,-0.609 1.522,-1.127 0.685,0.529 1.599,1.236 2.283,1.766 0.876,-1.155 1.491,-2.239 2.123,-3.747 -1.013,-3.298 -1.013,-3.298 -0.523,-5.841 0.644,-0.366 1.505,-0.852 2.15,-1.217 0.13,-1.692 0.127,-3.078 -0.008,-4.785 -0.613,-0.379 -1.431,-0.885 -2.046,-1.264 -0.136,-0.894 -0.242,-1.418 -0.451,-2.242 1.217,-3.738 1.217,-3.738 -0.626,-6.783 -0.598,0.369 -1.395,0.861 -1.993,1.23 -0.379,-0.474 -0.692,-0.834 -1.171,-1.269 -0.088,-1.108 -0.205,-2.584 -0.294,-3.69 -0.892,-0.58 -1.66,-0.91 -2.65,-1.14 -0.381,0.906 -0.888,2.113 -1.268,3.017 -0.585,-0.017 -0.936,0.006 -1.505,0.106 -0.521,-0.848 -1.215,-1.979 -1.738,-2.827 -0.805,0.284 -1.724,0.666 -2.976,1.543 0.053,1.127 0.125,2.627 0.179,3.754 -0.54,0.526 -0.846,0.869 -1.312,1.473 -0.89,-0.254 -2.075,-0.594 -2.964,-0.85 -0.82,1.299 -1.377,2.448 -1.925,3.963 0.636,0.904 1.484,2.108 2.121,3.012 -0.185,0.881 -0.271,1.457 -0.35,2.371 -0.895,0.557 -2.083,1.299 -2.976,1.855 0.017,1.764 0.189,3.227 0.574,4.893 1.001,0.184 2.336,0.426 3.337,0.609 0.319,0.872 0.542,1.379 0.958,2.172 -0.404,1.19 -0.941,2.78 -1.346,3.969 0.409,0.578 0.987,1.352 1.85,2.211 m 11.734,-23.668 c 6.011,6.647 3.37,20.334 -3.925,20.342 -7.182,0.008 -11.494,-13.108 -4.57,-19.99 2.042,-2.028 5.489,-3.334 8.495,-0.352"
       style="fill:#e63d4d;fill-opacity:1;fill-rule:nonzero;stroke:none"
       id="path30"
       inkscape:connector-curvature="0" /><path
       d="m 174.3135,420.0391 c 0.284,0.279 0.417,0.406 0.792,0.727 1.013,-0.481 2.363,-1.122 3.376,-1.602 0.676,0.424 1.127,0.658 1.859,0.963 0.146,1.082 0.34,2.525 0.487,3.607 1.455,0.362 2.668,0.489 4.186,0.442 0.49,-1.008 1.144,-2.354 1.634,-3.362 0.763,-0.14 1.242,-0.269 2.051,-0.556 0.783,0.668 1.825,1.558 2.607,2.226 1.329,-0.716 2.334,-1.443 3.463,-2.508 -0.24,-1.041 -0.56,-2.427 -0.802,-3.466 0.5,-0.621 0.785,-1.039 1.228,-1.791 0.99,-0.065 2.311,-0.153 3.302,-0.217 0.574,-1.42 0.899,-2.623 1.122,-4.152 -0.795,-0.577 -1.856,-1.346 -2.651,-1.924 0.018,-0.83 -0.007,-1.328 -0.101,-2.135 0.719,-0.729 1.677,-1.701 2.397,-2.43 -0.379,-1.445 -0.816,-2.545 -1.505,-3.801 -0.959,0.127 -2.237,0.295 -3.195,0.422 -0.317,-0.425 -0.707,-0.929 -1.314,-1.517 0.149,-1.037 0.351,-2.422 0.502,-3.459 -1.143,-0.822 -2.133,-1.354 -3.42,-1.832 -0.706,0.75 -1.65,1.748 -2.356,2.496 -0.786,-0.158 -1.248,-0.217 -1.977,-0.252 -0.503,-0.902 -1.172,-2.106 -1.675,-3.006 -1.449,0.143 -2.596,0.406 -3.961,0.906 -0.115,1.059 -0.27,2.471 -0.385,3.53 -0.705,0.388 -1.137,0.668 -1.773,1.148 -0.988,-0.359 -2.302,-0.838 -3.287,-1.197 -1.1,1.095 -1.874,2.078 -2.668,3.392 0.582,0.893 1.358,2.084 1.94,2.977 -0.328,0.777 -0.493,1.262 -0.709,2.072 -1.029,0.391 -2.403,0.91 -3.433,1.299 -0.192,1.553 -0.189,2.814 0.007,4.357 1.043,0.282 2.435,0.657 3.477,0.94 0.22,0.773 0.401,1.262 0.75,2.01 -0.585,0.97 -1.366,2.267 -1.952,3.238 0.438,0.67 1.015,1.484 1.984,2.455 m 17.008,-18.523 c 6.138,6.775 0.65,16.568 -6.926,16.212 -8.157,-0.382 -11.211,-10.783 -4.805,-16.363 3.519,-3.066 8.562,-3.002 11.731,0.151"
       style="fill:#e63d4d;fill-opacity:1;fill-rule:nonzero;stroke:none"
       id="path34"
       inkscape:connector-curvature="0" /><path
       d="m 175.9541,382.3945 c 0.228,0.225 0.462,0.447 0.696,0.666 1.518,-0.602 3.54,-1.406 5.058,-2.008 0.993,0.686 1.656,1.072 2.725,1.594 0.217,1.609 0.506,3.756 0.724,5.367 2.167,0.666 3.944,0.957 6.137,1.006 0.684,-1.443 1.596,-3.367 2.279,-4.809 1.111,-0.146 1.787,-0.295 2.892,-0.636 1.116,1.021 2.603,2.384 3.718,3.406 1.797,-0.943 3.138,-1.932 4.628,-3.41 -0.36,-1.475 -0.838,-3.442 -1.198,-4.916 0.646,-0.824 1.015,-1.379 1.577,-2.375 1.279,-0.031 2.983,-0.074 4.26,-0.106 0.658,-1.849 1.022,-3.42 1.256,-5.42 -0.995,-0.783 -2.321,-1.828 -3.315,-2.611 0.02,-1.035 -0.01,-1.658 -0.122,-2.668 0.883,-0.83 2.063,-1.937 2.947,-2.768 -0.431,-1.714 -0.916,-3.017 -1.682,-4.496 -1.168,0.047 -2.725,0.112 -3.892,0.161 -0.556,-0.791 -0.913,-1.225 -1.523,-1.856 0.287,-1.107 0.669,-2.58 0.956,-3.685 -1.299,-1.012 -2.456,-1.702 -3.992,-2.383 -1.007,0.685 -2.351,1.599 -3.358,2.285 -0.976,-0.287 -1.596,-0.428 -2.553,-0.576 -0.512,-1.041 -1.195,-2.43 -1.707,-3.471 -1.952,-0.104 -3.547,-0.023 -5.5,0.273 -0.354,1.151 -0.826,2.684 -1.182,3.834 -1.043,0.325 -1.69,0.577 -2.665,1.038 -1.33,-0.575 -3.104,-1.342 -4.434,-1.918 -2.187,1.306 -3.529,2.613 -4.454,3.605 0.709,1.191 1.654,2.779 2.363,3.973 -0.586,0.931 -0.892,1.525 -1.308,2.541 -1.566,0.369 -3.653,0.861 -5.22,1.232 -0.481,2.027 -0.614,3.729 -0.457,5.871 1.529,0.512 3.565,1.196 5.093,1.707 0.273,1.102 0.508,1.805 0.973,2.891 -0.925,1.318 -2.158,3.076 -3.081,4.392 0.369,0.6 1.496,2.42 3.361,4.27 m 24.107,-23.311 c 7.285,8.018 1.288,21.028 -9.298,20.176 -9.991,-0.804 -16.184,-13.761 -7.289,-20.756 4.929,-3.877 12.371,-3.617 16.587,0.58"
       style="fill:#e63d4d;fill-opacity:1;fill-rule:nonzero;stroke:none"
       id="path38"
       inkscape:connector-curvature="0" /></g></svg>