<?xml version="1.0" encoding="UTF-8" standalone="no"?>
<!-- Generator: Adobe Illustrator 19.2.0, SVG Export Plug-In . SVG Version: 6.00 Build 0)  -->

<svg
   xmlns:dc="http://purl.org/dc/elements/1.1/"
   xmlns:cc="http://creativecommons.org/ns#"
   xmlns:rdf="http://www.w3.org/1999/02/22-rdf-syntax-ns#"
   xmlns:svg="http://www.w3.org/2000/svg"
   xmlns="http://www.w3.org/2000/svg"
   xmlns:sodipodi="http://sodipodi.sourceforge.net/DTD/sodipodi-0.dtd"
   xmlns:inkscape="http://www.inkscape.org/namespaces/inkscape"
   version="1.1"
   x="0px"
   y="0px"
   viewBox="0 0 160 160"
   xml:space="preserve"
   id="svg2"
   inkscape:version="0.91 r13725"
   sodipodi:docname="cnbimobile-wheelchair.svg"
   width="160"
   height="160"><metadata
     id="metadata34"><rdf:RDF><cc:Work
         rdf:about=""><dc:format>image/svg+xml</dc:format><dc:type
           rdf:resource="http://purl.org/dc/dcmitype/StillImage" /><dc:title /></cc:Work></rdf:RDF></metadata><defs
     id="defs32" /><sodipodi:namedview
     pagecolor="#ffffff"
     bordercolor="#666666"
     borderopacity="1"
     objecttolerance="10"
     gridtolerance="10"
     guidetolerance="10"
     inkscape:pageopacity="0"
     inkscape:pageshadow="2"
     inkscape:window-width="2495"
     inkscape:window-height="1416"
     id="namedview30"
     showgrid="false"
     inkscape:zoom="4.9166667"
     inkscape:cx="-22.372881"
     inkscape:cy="61.627119"
     inkscape:window-x="65"
     inkscape:window-y="24"
     inkscape:window-maximized="1"
     inkscape:current-layer="svg2" /><g
     id="g4162"
     transform="matrix(4.4444305,0,0,4.4444305,-31.025469,-31.09355)"><path
       id="path4"
       d="m 23,21 0,0 c -0.55,0 -1,-0.45 -1,-1 l 0,-1 c 0,-0.55 0.45,-1 1,-1 l 0,0 c 0.55,0 1,0.45 1,1 l 0,1 c 0,0.55 -0.45,1 -1,1 z"
       style="fill:#546e7a"
       inkscape:connector-curvature="0" /><path
       id="path6"
       d="m 32,30 c 0,-2.761 -4.029,-5 -9,-5 -4.971,0 -9,2.239 -9,5 l 18,0 z"
       style="fill:#546e7a"
       inkscape:connector-curvature="0" /><path
       id="path8"
       d="M 14.452,29.608 C 15.086,29.426 15.598,29.64 16,29 16.667,25.917 17.427,21.966 16,17 14.218,10.801 11.344,7 8,7 l 6.452,22.608 z"
       style="fill:#546e7a"
       inkscape:connector-curvature="0" /><path
       id="path10"
       d="m 36,39 -26,0 0,-1 c 0,-4.971 4.029,-9 9,-9 l 8,0 c 4.971,0 9,4.029 9,9 l 0,1 z"
       style="fill:#474747;fill-opacity:1"
       inkscape:connector-curvature="0" /><path
       id="path12"
       d="m 42.274,34.962 -6.733,1.915 c -0.529,0.151 -1.085,-0.159 -1.235,-0.688 l 0,0 c -0.151,-0.529 0.159,-1.085 0.688,-1.235 l 6.733,-1.915 c 0.529,-0.151 1.085,0.159 1.235,0.688 l 0,0 c 0.15,0.528 -0.159,1.084 -0.688,1.235 z"
       style="fill:#37474f"
       inkscape:connector-curvature="0" /><rect
       id="rect14"
       height="2"
       width="23"
       style="fill:#37474f"
       y="37"
       x="12" /><circle
       id="circle16"
       r="4"
       cy="38"
       cx="13"
       style="fill:#cfd8dc;stroke:#546e7a;stroke-width:2;stroke-miterlimit:10" /><circle
       id="circle18"
       r="1"
       cy="38"
       cx="13"
       style="fill:#546e7a" /><circle
       id="circle20"
       r="4"
       cy="38"
       cx="33"
       style="fill:#cfd8dc;stroke:#546e7a;stroke-width:2;stroke-miterlimit:10" /><circle
       id="circle22"
       r="1"
       cy="38"
       cx="33"
       style="fill:#546e7a" /><path
       id="path24"
       d="M 15.778,31 13.567,31 7.038,8.305 C 6.887,7.776 7.197,7.22 7.726,7.07 L 7.839,7.038 C 8.368,6.887 8.924,7.197 9.074,7.726 L 15.778,31 Z"
       style="fill:#37474f"
       inkscape:connector-curvature="0" /><path
       id="path26"
       d="m 15,29 16,0 c 0.55,0 1,0.45 1,1 l 0,0 c 0,0.55 -0.45,1 -1,1 l -16,0 c -0.55,0 -1,-0.45 -1,-1 l 0,0 c 0,-0.55 0.45,-1 1,-1 z"
       style="fill:#37474f"
       inkscape:connector-curvature="0" /><path
       id="path28"
       d="m 12,20 14,0 c 0.55,0 1,0.45 1,1 l 0,0 c 0,0.55 -0.45,1 -1,1 l -14,0 c -0.55,0 -1,-0.45 -1,-1 l 0,0 c 0,-0.55 0.45,-1 1,-1 z"
       style="fill:#37474f"
       inkscape:connector-curvature="0" /></g></svg>